# xmcd
# 
# Track frame offsets:
#	150
#	15075
#	27243
#	38569
#	50449
#	63417
#	77966
#	91637
#	108017
#	123443
#
# Disc length: 1808 seconds
#
# Revision: 1
# Processed by: cddbd v1.4PL0 Copyright (c) Steve Scherf et al.
# Submitted via: Audio-CD-Archiv 2.10.438
#
DISCID=67070e0a
DTITLE=Frankie Laine - The Best Of
DYEAR=1900
DGENRE=blues
TTITLE0=Jealousy
TTITLE1=High Noon
TTITLE2=Your Cheatin' Heart
TTITLE3=Blowing Wild
TTITLE4=Cool Water
TTITLE5=Jezebel
TTITLE6=Granada
TTITLE7=That Lucky Old Sun
TTITLE8=That's My Desire
TTITLE9=Answer Me
EXTD=
EXTT0=
EXTT1=
EXTT2=
EXTT3=
EXTT4=
EXTT5=
EXTT6=
EXTT7=
EXTT8=
EXTT9=
PLAYORDER=
